<svg width="271" height="54" viewBox="0 0 271 54" fill="none" xmlns="http://www.w3.org/2000/svg">
<g clip-path="url(#clip0_22_571)">
<path d="M15.118 23.303C15.118 24.5853 14.6433 25.8133 13.8003 26.7192L7.67363 33.3032C7.57074 33.4138 7.46604 33.5186 7.35412 33.6156C7.08696 33.8542 6.79634 34.054 6.49307 34.215C5.86489 34.5506 5.17893 34.7174 4.49479 34.7174C3.34492 34.7174 2.19324 34.246 1.31594 33.3013C-0.438648 31.4157 -0.438648 28.3565 1.31594 26.469L4.26193 23.303L1.31594 20.1352C-0.438648 18.2496 -0.438648 15.1904 1.31594 13.3028C2.71492 11.7994 4.81249 11.4929 6.49307 12.3911C6.79995 12.554 7.09238 12.7558 7.36315 12.9963C7.46965 13.0933 7.57435 13.1942 7.67363 13.3009L7.92094 13.5667L13.8003 19.8849C14.6451 20.7928 15.118 22.0227 15.118 23.303Z" fill="white"/>
<path d="M15.118 23.3031C15.118 24.5853 14.6432 25.8133 13.8002 26.7192L7.67362 33.3033C7.57072 33.4138 7.46603 33.5186 7.35411 33.6156C7.08695 33.8542 6.79632 34.054 6.49306 34.215C6.06524 33.9881 5.66631 33.6835 5.31069 33.3013C3.5561 31.4157 3.5561 28.3565 5.31069 26.469L8.25668 23.3031L5.3125 20.1352C3.55791 18.2496 3.55791 15.1904 5.3125 13.3029C5.66811 12.9207 6.06705 12.6181 6.49306 12.3911C6.79993 12.5541 7.09236 12.7558 7.36313 12.9964C7.46964 13.0934 7.57433 13.1942 7.67362 13.3009L7.92092 13.5667L13.8002 19.885C14.645 20.7928 15.118 22.0227 15.118 23.3031Z" fill="white"/>
<path d="M40 23.303C40 34.4982 31.5249 43.6061 21.1075 43.6061H12.0908C9.72249 43.6061 7.78017 41.6371 7.60868 39.1365C7.59785 39.0182 7.59424 38.8979 7.59424 38.7738C7.59424 36.1064 9.60697 33.9415 12.0908 33.9415H21.1093C26.568 33.9415 31.0105 29.1693 31.0105 23.3011C31.0105 17.4348 26.568 12.6607 21.1093 12.6607H12.0908C9.60877 12.6607 7.59424 10.4977 7.59424 7.82842C7.59424 7.70621 7.59785 7.58399 7.60868 7.46566C7.78017 4.969 9.72069 3 12.0908 3H21.1093C31.5267 3 40 12.1078 40 23.303Z" fill="white"/>
<path d="M7.92094 13.5706C7.71696 13.4037 7.52923 13.2098 7.36316 13.0002C7.46966 13.0972 7.57436 13.1981 7.67364 13.3048L7.92094 13.5706Z" fill="white"/>
<path d="M7.67363 33.3033C7.57074 33.4139 7.46604 33.5186 7.35413 33.6156C7.52561 33.3964 7.72057 33.1985 7.92996 33.0278L7.67363 33.3033Z" fill="white"/>
<path d="M33.5394 23.303C33.5394 32.6592 26.4579 40.2675 17.7535 40.2675H10.2153C9.20078 40.2675 8.28377 39.8368 7.60685 39.1365C7.59602 39.0182 7.59241 38.8979 7.59241 38.7738C7.59241 36.1064 9.60513 33.9415 12.089 33.9415H21.1075C26.5662 33.9415 31.0086 29.1693 31.0086 23.3011C31.0086 17.4348 26.5662 12.6607 21.1075 12.6607H12.0908C9.60874 12.6607 7.59421 10.4977 7.59421 7.82844C7.59421 7.70623 7.59782 7.58401 7.60865 7.46568C8.28558 6.76538 9.20259 6.33472 10.2171 6.33472H17.7535C26.4579 6.3386 33.5394 13.9469 33.5394 23.303Z" fill="white"/>
</g>
<path d="M65.2156 26.932C66.7516 27.292 67.9396 28.036 68.7796 29.164C69.6436 30.268 70.0756 31.552 70.0756 33.016C70.0756 35.248 69.3316 36.976 67.8436 38.2C66.3796 39.4 64.2676 40 61.5076 40H48.1516V14.512H61.1476C63.7396 14.512 65.7796 15.076 67.2676 16.204C68.7556 17.332 69.4996 18.976 69.4996 21.136C69.4996 22.624 69.1036 23.884 68.3116 24.916C67.5436 25.924 66.5116 26.596 65.2156 26.932ZM56.1436 24.448H59.2396C59.9596 24.448 60.4876 24.304 60.8236 24.016C61.1836 23.728 61.3636 23.284 61.3636 22.684C61.3636 22.06 61.1836 21.604 60.8236 21.316C60.4876 21.004 59.9596 20.848 59.2396 20.848H56.1436V24.448ZM59.7796 33.592C60.4996 33.592 61.0276 33.46 61.3636 33.196C61.7236 32.908 61.9036 32.452 61.9036 31.828C61.9036 30.604 61.1956 29.992 59.7796 29.992H56.1436V33.592H59.7796ZM71.6809 29.848C71.6809 27.712 72.0409 25.864 72.7609 24.304C73.5049 22.72 74.5129 21.52 75.7849 20.704C77.0569 19.864 78.4849 19.444 80.0689 19.444C81.3889 19.444 82.5289 19.72 83.4889 20.272C84.4489 20.8 85.1809 21.532 85.6849 22.468V19.696H93.6409V40H85.6849V37.228C85.1809 38.164 84.4489 38.908 83.4889 39.46C82.5289 39.988 81.3889 40.252 80.0689 40.252C78.4849 40.252 77.0569 39.844 75.7849 39.028C74.5129 38.188 73.5049 36.988 72.7609 35.428C72.0409 33.844 71.6809 31.984 71.6809 29.848ZM85.6849 29.848C85.6849 28.768 85.4089 27.928 84.8569 27.328C84.3049 26.728 83.5969 26.428 82.7329 26.428C81.8689 26.428 81.1609 26.728 80.6089 27.328C80.0569 27.928 79.7809 28.768 79.7809 29.848C79.7809 30.928 80.0569 31.768 80.6089 32.368C81.1609 32.968 81.8689 33.268 82.7329 33.268C83.5969 33.268 84.3049 32.968 84.8569 32.368C85.4089 31.768 85.6849 30.928 85.6849 29.848ZM105.222 23.44C106.038 22.264 107.034 21.328 108.21 20.632C109.386 19.912 110.61 19.552 111.882 19.552V28.084H109.614C108.102 28.084 106.986 28.348 106.266 28.876C105.57 29.404 105.222 30.34 105.222 31.684V40H97.2297V19.696H105.222V23.44ZM122.026 22.468C122.53 21.532 123.25 20.8 124.186 20.272C125.146 19.72 126.286 19.444 127.606 19.444C129.19 19.444 130.618 19.864 131.89 20.704C133.162 21.52 134.158 22.72 134.878 24.304C135.622 25.864 135.994 27.712 135.994 29.848C135.994 31.984 135.622 33.844 134.878 35.428C134.158 36.988 133.162 38.188 131.89 39.028C130.618 39.844 129.19 40.252 127.606 40.252C126.286 40.252 125.146 39.988 124.186 39.46C123.25 38.908 122.53 38.164 122.026 37.228V40H114.034V13.36H122.026V22.468ZM127.894 29.848C127.894 28.768 127.618 27.928 127.066 27.328C126.514 26.728 125.806 26.428 124.942 26.428C124.078 26.428 123.37 26.728 122.818 27.328C122.266 27.928 121.99 28.768 121.99 29.848C121.99 30.928 122.266 31.768 122.818 32.368C123.37 32.968 124.078 33.268 124.942 33.268C125.806 33.268 126.514 32.968 127.066 32.368C127.618 31.768 127.894 30.928 127.894 29.848ZM158.159 29.668C158.159 30.22 158.123 30.748 158.051 31.252H145.199C145.319 33.004 146.051 33.88 147.395 33.88C148.259 33.88 148.883 33.484 149.267 32.692H157.727C157.439 34.132 156.827 35.428 155.891 36.58C154.979 37.708 153.815 38.608 152.399 39.28C151.007 39.928 149.471 40.252 147.791 40.252C145.775 40.252 143.975 39.832 142.391 38.992C140.831 38.152 139.607 36.952 138.719 35.392C137.855 33.808 137.423 31.96 137.423 29.848C137.423 27.736 137.855 25.9 138.719 24.34C139.607 22.756 140.831 21.544 142.391 20.704C143.975 19.864 145.775 19.444 147.791 19.444C149.807 19.444 151.595 19.864 153.155 20.704C154.739 21.52 155.963 22.696 156.827 24.232C157.715 25.768 158.159 27.58 158.159 29.668ZM150.059 27.76C150.059 27.088 149.843 26.584 149.411 26.248C148.979 25.888 148.439 25.708 147.791 25.708C146.375 25.708 145.547 26.392 145.307 27.76H150.059ZM168.679 23.44C169.495 22.264 170.491 21.328 171.667 20.632C172.843 19.912 174.067 19.552 175.339 19.552V28.084H173.071C171.559 28.084 170.443 28.348 169.723 28.876C169.027 29.404 168.679 30.34 168.679 31.684V40H160.687V19.696H168.679V23.44ZM187.463 40.252C184.415 40.252 181.895 39.544 179.903 38.128C177.935 36.688 176.867 34.588 176.699 31.828H185.195C185.315 33.292 185.963 34.024 187.139 34.024C187.571 34.024 187.931 33.928 188.219 33.736C188.531 33.52 188.687 33.196 188.687 32.764C188.687 32.164 188.363 31.684 187.715 31.324C187.067 30.94 186.059 30.508 184.691 30.028C183.059 29.452 181.703 28.888 180.623 28.336C179.567 27.784 178.655 26.98 177.887 25.924C177.119 24.868 176.747 23.512 176.771 21.856C176.771 20.2 177.191 18.796 178.031 17.644C178.895 16.468 180.059 15.58 181.523 14.98C183.011 14.38 184.679 14.08 186.527 14.08C189.647 14.08 192.119 14.8 193.943 16.24C195.791 17.68 196.763 19.708 196.859 22.324H188.255C188.231 21.604 188.051 21.088 187.715 20.776C187.379 20.464 186.971 20.308 186.491 20.308C186.155 20.308 185.879 20.428 185.663 20.668C185.447 20.884 185.339 21.196 185.339 21.604C185.339 22.18 185.651 22.66 186.275 23.044C186.923 23.404 187.943 23.848 189.335 24.376C190.943 24.976 192.263 25.552 193.295 26.104C194.351 26.656 195.263 27.424 196.031 28.408C196.799 29.392 197.183 30.628 197.183 32.116C197.183 33.676 196.799 35.08 196.031 36.328C195.263 37.552 194.147 38.512 192.683 39.208C191.219 39.904 189.479 40.252 187.463 40.252ZM214.211 19.552C216.539 19.552 218.351 20.332 219.647 21.892C220.967 23.452 221.627 25.564 221.627 28.228V40H213.671V29.236C213.671 28.276 213.407 27.52 212.879 26.968C212.375 26.392 211.691 26.104 210.827 26.104C209.939 26.104 209.243 26.392 208.739 26.968C208.235 27.52 207.983 28.276 207.983 29.236V40H199.991V13.36H207.983V22.792C208.607 21.832 209.435 21.052 210.467 20.452C211.523 19.852 212.771 19.552 214.211 19.552ZM234.741 40.252C232.701 40.252 230.865 39.832 229.233 38.992C227.601 38.152 226.317 36.952 225.381 35.392C224.469 33.808 224.013 31.96 224.013 29.848C224.013 27.736 224.469 25.9 225.381 24.34C226.317 22.756 227.601 21.544 229.233 20.704C230.865 19.864 232.701 19.444 234.741 19.444C236.781 19.444 238.617 19.864 240.249 20.704C241.881 21.544 243.153 22.756 244.065 24.34C245.001 25.9 245.469 27.736 245.469 29.848C245.469 31.96 245.001 33.808 244.065 35.392C243.153 36.952 241.881 38.152 240.249 38.992C238.617 39.832 236.781 40.252 234.741 40.252ZM234.741 33.34C235.485 33.34 236.109 33.052 236.613 32.476C237.117 31.876 237.369 31 237.369 29.848C237.369 28.696 237.117 27.832 236.613 27.256C236.109 26.656 235.485 26.356 234.741 26.356C233.997 26.356 233.373 26.656 232.869 27.256C232.365 27.832 232.113 28.696 232.113 29.848C232.113 31 232.353 31.876 232.833 32.476C233.337 33.052 233.973 33.34 234.741 33.34ZM255.972 22.468C256.476 21.532 257.196 20.8 258.132 20.272C259.092 19.72 260.232 19.444 261.552 19.444C263.136 19.444 264.564 19.864 265.836 20.704C267.108 21.52 268.104 22.72 268.824 24.304C269.568 25.864 269.94 27.712 269.94 29.848C269.94 31.984 269.568 33.844 268.824 35.428C268.104 36.988 267.108 38.188 265.836 39.028C264.564 39.844 263.136 40.252 261.552 40.252C260.232 40.252 259.092 39.988 258.132 39.46C257.196 38.908 256.476 38.164 255.972 37.228V49.72H247.98V19.696H255.972V22.468ZM261.84 29.848C261.84 28.768 261.564 27.928 261.012 27.328C260.46 26.728 259.752 26.428 258.888 26.428C258.024 26.428 257.316 26.728 256.764 27.328C256.212 27.928 255.936 28.768 255.936 29.848C255.936 30.928 256.212 31.768 256.764 32.368C257.316 32.968 258.024 33.268 258.888 33.268C259.752 33.268 260.46 32.968 261.012 32.368C261.564 31.768 261.84 30.928 261.84 29.848Z" fill="white"/>
<defs>
<clipPath id="clip0_22_571">
<rect width="40" height="40.6061" fill="white" transform="translate(0 3)"/>
</clipPath>
</defs>
</svg>
