<svg width="272" height="54" viewBox="0 0 272 54" fill="none" xmlns="http://www.w3.org/2000/svg">
<g clip-path="url(#clip0_35_380)">
<path d="M17.0078 22.8409C17.0078 24.2835 16.4737 25.665 15.5253 26.6841L8.63284 34.0912C8.51708 34.2156 8.3993 34.3334 8.27339 34.4425C7.97283 34.711 7.64588 34.9358 7.30471 35.1169C6.598 35.4944 5.8263 35.6821 5.05664 35.6821C3.76303 35.6821 2.46739 35.1518 1.48044 34.089C-0.493479 31.9677 -0.493479 28.5261 1.48044 26.4026L4.79467 22.8409L1.48044 19.2771C-0.493479 17.1558 -0.493479 13.7142 1.48044 11.5907C3.05429 9.89936 5.41405 9.55454 7.30471 10.565C7.64994 10.7483 7.97893 10.9753 8.28354 11.2459C8.40336 11.355 8.52114 11.4685 8.63284 11.5885L8.91105 11.8875L15.5253 18.9956C16.4757 20.0169 17.0078 21.4006 17.0078 22.8409Z" fill="black"/>
<path d="M17.0078 22.841C17.0078 24.2835 16.4737 25.665 15.5253 26.6841L8.63286 34.0912C8.51711 34.2156 8.39933 34.3334 8.27342 34.4425C7.97286 34.711 7.64591 34.9358 7.30474 35.1169C6.82344 34.8616 6.37464 34.5189 5.97458 34.089C4.00066 31.9677 4.00066 28.5261 5.97458 26.4026L9.28881 22.841L5.97661 19.2771C4.00269 17.1558 4.00269 13.7142 5.97661 11.5907C6.37667 11.1608 6.82547 10.8203 7.30474 10.565C7.64997 10.7483 7.97895 10.9753 8.28357 11.2459C8.40339 11.355 8.52117 11.4685 8.63286 11.5885L8.91108 11.8875L15.5253 18.9956C16.4757 20.0169 17.0078 21.4006 17.0078 22.841Z" fill="black"/>
<path d="M45.0001 22.8409C45.0001 35.4355 35.4656 45.6818 23.746 45.6818H13.6022C10.9379 45.6818 8.75275 43.4667 8.55983 40.6536C8.54764 40.5205 8.54358 40.3852 8.54358 40.2455C8.54358 37.2447 10.8079 34.8091 13.6022 34.8091H23.748C29.8891 34.8091 34.8868 29.4405 34.8868 22.8387C34.8868 16.2392 29.8891 10.8683 23.748 10.8683H13.6022C10.8099 10.8683 8.54358 8.43494 8.54358 5.43197C8.54358 5.29448 8.54764 5.15699 8.55983 5.02387C8.75275 2.21513 10.9358 0 13.6022 0H23.748C35.4676 0 45.0001 10.2463 45.0001 22.8409Z" fill="black"/>
<path d="M8.91108 11.8919C8.6816 11.7042 8.4704 11.486 8.28357 11.2503C8.40338 11.3594 8.52117 11.4729 8.63286 11.5929L8.91108 11.8919Z" fill="black"/>
<path d="M8.63288 34.0912C8.51713 34.2156 8.39935 34.3335 8.27344 34.4426C8.46636 34.196 8.68569 33.9734 8.92126 33.7813L8.63288 34.0912Z" fill="black"/>
<path d="M37.7319 22.841C37.7319 33.3666 29.7652 41.926 19.9727 41.926H11.4922C10.3509 41.926 9.31929 41.4415 8.55775 40.6536C8.54557 40.5205 8.5415 40.3852 8.5415 40.2455C8.5415 37.2447 10.8058 34.8092 13.6002 34.8092H23.7459C29.887 34.8092 34.8847 29.4405 34.8847 22.8388C34.8847 16.2392 29.887 10.8684 23.7459 10.8684H13.6022C10.8099 10.8684 8.54353 8.435 8.54353 5.43203C8.54353 5.29454 8.5476 5.15705 8.55978 5.02392C9.32132 4.23608 10.353 3.75159 11.4943 3.75159H19.9727C29.7652 3.75595 37.7319 12.3153 37.7319 22.841Z" fill="black"/>
</g>
<path d="M66.2156 26.932C67.7516 27.292 68.9396 28.036 69.7796 29.164C70.6436 30.268 71.0756 31.552 71.0756 33.016C71.0756 35.248 70.3316 36.976 68.8436 38.2C67.3796 39.4 65.2676 40 62.5076 40H49.1516V14.512H62.1476C64.7396 14.512 66.7796 15.076 68.2676 16.204C69.7556 17.332 70.4996 18.976 70.4996 21.136C70.4996 22.624 70.1036 23.884 69.3116 24.916C68.5436 25.924 67.5116 26.596 66.2156 26.932ZM57.1436 24.448H60.2396C60.9596 24.448 61.4876 24.304 61.8236 24.016C62.1836 23.728 62.3636 23.284 62.3636 22.684C62.3636 22.06 62.1836 21.604 61.8236 21.316C61.4876 21.004 60.9596 20.848 60.2396 20.848H57.1436V24.448ZM60.7796 33.592C61.4996 33.592 62.0276 33.46 62.3636 33.196C62.7236 32.908 62.9036 32.452 62.9036 31.828C62.9036 30.604 62.1956 29.992 60.7796 29.992H57.1436V33.592H60.7796ZM72.6809 29.848C72.6809 27.712 73.0409 25.864 73.7609 24.304C74.5049 22.72 75.5129 21.52 76.7849 20.704C78.0569 19.864 79.4849 19.444 81.0689 19.444C82.3889 19.444 83.5289 19.72 84.4889 20.272C85.4489 20.8 86.1809 21.532 86.6849 22.468V19.696H94.6409V40H86.6849V37.228C86.1809 38.164 85.4489 38.908 84.4889 39.46C83.5289 39.988 82.3889 40.252 81.0689 40.252C79.4849 40.252 78.0569 39.844 76.7849 39.028C75.5129 38.188 74.5049 36.988 73.7609 35.428C73.0409 33.844 72.6809 31.984 72.6809 29.848ZM86.6849 29.848C86.6849 28.768 86.4089 27.928 85.8569 27.328C85.3049 26.728 84.5969 26.428 83.7329 26.428C82.8689 26.428 82.1609 26.728 81.6089 27.328C81.0569 27.928 80.7809 28.768 80.7809 29.848C80.7809 30.928 81.0569 31.768 81.6089 32.368C82.1609 32.968 82.8689 33.268 83.7329 33.268C84.5969 33.268 85.3049 32.968 85.8569 32.368C86.4089 31.768 86.6849 30.928 86.6849 29.848ZM106.222 23.44C107.038 22.264 108.034 21.328 109.21 20.632C110.386 19.912 111.61 19.552 112.882 19.552V28.084H110.614C109.102 28.084 107.986 28.348 107.266 28.876C106.57 29.404 106.222 30.34 106.222 31.684V40H98.2297V19.696H106.222V23.44ZM123.026 22.468C123.53 21.532 124.25 20.8 125.186 20.272C126.146 19.72 127.286 19.444 128.606 19.444C130.19 19.444 131.618 19.864 132.89 20.704C134.162 21.52 135.158 22.72 135.878 24.304C136.622 25.864 136.994 27.712 136.994 29.848C136.994 31.984 136.622 33.844 135.878 35.428C135.158 36.988 134.162 38.188 132.89 39.028C131.618 39.844 130.19 40.252 128.606 40.252C127.286 40.252 126.146 39.988 125.186 39.46C124.25 38.908 123.53 38.164 123.026 37.228V40H115.034V13.36H123.026V22.468ZM128.894 29.848C128.894 28.768 128.618 27.928 128.066 27.328C127.514 26.728 126.806 26.428 125.942 26.428C125.078 26.428 124.37 26.728 123.818 27.328C123.266 27.928 122.99 28.768 122.99 29.848C122.99 30.928 123.266 31.768 123.818 32.368C124.37 32.968 125.078 33.268 125.942 33.268C126.806 33.268 127.514 32.968 128.066 32.368C128.618 31.768 128.894 30.928 128.894 29.848ZM159.159 29.668C159.159 30.22 159.123 30.748 159.051 31.252H146.199C146.319 33.004 147.051 33.88 148.395 33.88C149.259 33.88 149.883 33.484 150.267 32.692H158.727C158.439 34.132 157.827 35.428 156.891 36.58C155.979 37.708 154.815 38.608 153.399 39.28C152.007 39.928 150.471 40.252 148.791 40.252C146.775 40.252 144.975 39.832 143.391 38.992C141.831 38.152 140.607 36.952 139.719 35.392C138.855 33.808 138.423 31.96 138.423 29.848C138.423 27.736 138.855 25.9 139.719 24.34C140.607 22.756 141.831 21.544 143.391 20.704C144.975 19.864 146.775 19.444 148.791 19.444C150.807 19.444 152.595 19.864 154.155 20.704C155.739 21.52 156.963 22.696 157.827 24.232C158.715 25.768 159.159 27.58 159.159 29.668ZM151.059 27.76C151.059 27.088 150.843 26.584 150.411 26.248C149.979 25.888 149.439 25.708 148.791 25.708C147.375 25.708 146.547 26.392 146.307 27.76H151.059ZM169.679 23.44C170.495 22.264 171.491 21.328 172.667 20.632C173.843 19.912 175.067 19.552 176.339 19.552V28.084H174.071C172.559 28.084 171.443 28.348 170.723 28.876C170.027 29.404 169.679 30.34 169.679 31.684V40H161.687V19.696H169.679V23.44ZM188.463 40.252C185.415 40.252 182.895 39.544 180.903 38.128C178.935 36.688 177.867 34.588 177.699 31.828H186.195C186.315 33.292 186.963 34.024 188.139 34.024C188.571 34.024 188.931 33.928 189.219 33.736C189.531 33.52 189.687 33.196 189.687 32.764C189.687 32.164 189.363 31.684 188.715 31.324C188.067 30.94 187.059 30.508 185.691 30.028C184.059 29.452 182.703 28.888 181.623 28.336C180.567 27.784 179.655 26.98 178.887 25.924C178.119 24.868 177.747 23.512 177.771 21.856C177.771 20.2 178.191 18.796 179.031 17.644C179.895 16.468 181.059 15.58 182.523 14.98C184.011 14.38 185.679 14.08 187.527 14.08C190.647 14.08 193.119 14.8 194.943 16.24C196.791 17.68 197.763 19.708 197.859 22.324H189.255C189.231 21.604 189.051 21.088 188.715 20.776C188.379 20.464 187.971 20.308 187.491 20.308C187.155 20.308 186.879 20.428 186.663 20.668C186.447 20.884 186.339 21.196 186.339 21.604C186.339 22.18 186.651 22.66 187.275 23.044C187.923 23.404 188.943 23.848 190.335 24.376C191.943 24.976 193.263 25.552 194.295 26.104C195.351 26.656 196.263 27.424 197.031 28.408C197.799 29.392 198.183 30.628 198.183 32.116C198.183 33.676 197.799 35.08 197.031 36.328C196.263 37.552 195.147 38.512 193.683 39.208C192.219 39.904 190.479 40.252 188.463 40.252ZM215.211 19.552C217.539 19.552 219.351 20.332 220.647 21.892C221.967 23.452 222.627 25.564 222.627 28.228V40H214.671V29.236C214.671 28.276 214.407 27.52 213.879 26.968C213.375 26.392 212.691 26.104 211.827 26.104C210.939 26.104 210.243 26.392 209.739 26.968C209.235 27.52 208.983 28.276 208.983 29.236V40H200.991V13.36H208.983V22.792C209.607 21.832 210.435 21.052 211.467 20.452C212.523 19.852 213.771 19.552 215.211 19.552ZM235.741 40.252C233.701 40.252 231.865 39.832 230.233 38.992C228.601 38.152 227.317 36.952 226.381 35.392C225.469 33.808 225.013 31.96 225.013 29.848C225.013 27.736 225.469 25.9 226.381 24.34C227.317 22.756 228.601 21.544 230.233 20.704C231.865 19.864 233.701 19.444 235.741 19.444C237.781 19.444 239.617 19.864 241.249 20.704C242.881 21.544 244.153 22.756 245.065 24.34C246.001 25.9 246.469 27.736 246.469 29.848C246.469 31.96 246.001 33.808 245.065 35.392C244.153 36.952 242.881 38.152 241.249 38.992C239.617 39.832 237.781 40.252 235.741 40.252ZM235.741 33.34C236.485 33.34 237.109 33.052 237.613 32.476C238.117 31.876 238.369 31 238.369 29.848C238.369 28.696 238.117 27.832 237.613 27.256C237.109 26.656 236.485 26.356 235.741 26.356C234.997 26.356 234.373 26.656 233.869 27.256C233.365 27.832 233.113 28.696 233.113 29.848C233.113 31 233.353 31.876 233.833 32.476C234.337 33.052 234.973 33.34 235.741 33.34ZM256.972 22.468C257.476 21.532 258.196 20.8 259.132 20.272C260.092 19.72 261.232 19.444 262.552 19.444C264.136 19.444 265.564 19.864 266.836 20.704C268.108 21.52 269.104 22.72 269.824 24.304C270.568 25.864 270.94 27.712 270.94 29.848C270.94 31.984 270.568 33.844 269.824 35.428C269.104 36.988 268.108 38.188 266.836 39.028C265.564 39.844 264.136 40.252 262.552 40.252C261.232 40.252 260.092 39.988 259.132 39.46C258.196 38.908 257.476 38.164 256.972 37.228V49.72H248.98V19.696H256.972V22.468ZM262.84 29.848C262.84 28.768 262.564 27.928 262.012 27.328C261.46 26.728 260.752 26.428 259.888 26.428C259.024 26.428 258.316 26.728 257.764 27.328C257.212 27.928 256.936 28.768 256.936 29.848C256.936 30.928 257.212 31.768 257.764 32.368C258.316 32.968 259.024 33.268 259.888 33.268C260.752 33.268 261.46 32.968 262.012 32.368C262.564 31.768 262.84 30.928 262.84 29.848Z" fill="black"/>
<defs>
<clipPath id="clip0_35_380">
<rect width="45" height="45.6818" fill="white"/>
</clipPath>
</defs>
</svg>
