<svg width="30" height="30" viewBox="0 0 30 30" fill="none" xmlns="http://www.w3.org/2000/svg">
<path d="M20.4684 4.06218C21.9176 4.06651 23.3062 4.64411 24.3309 5.66884C25.3556 6.69356 25.9332 8.08215 25.9376 9.53132V20.4684C25.9332 21.9176 25.3556 23.3062 24.3309 24.3309C23.3062 25.3556 21.9176 25.9332 20.4684 25.9376H9.53132C8.08215 25.9332 6.69356 25.3556 5.66884 24.3309C4.64411 23.3062 4.06651 21.9176 4.06218 20.4684V9.53132C4.06651 8.08215 4.64411 6.69356 5.66884 5.66884C6.69356 4.64411 8.08215 4.06651 9.53132 4.06218H20.4684ZM20.4684 1.87488H9.53132C5.32019 1.87488 1.87488 5.32019 1.87488 9.53132V20.4684C1.87488 24.6796 5.32019 28.1249 9.53132 28.1249H20.4684C24.6796 28.1249 28.1249 24.6796 28.1249 20.4684V9.53132C28.1249 5.32019 24.6796 1.87488 20.4684 1.87488Z" fill="white"/>
<path d="M22.1091 9.53101C21.7846 9.53101 21.4674 9.43479 21.1977 9.25451C20.9279 9.07424 20.7176 8.81801 20.5934 8.51822C20.4692 8.21844 20.4367 7.88856 20.5 7.57031C20.5633 7.25206 20.7196 6.95973 20.949 6.73028C21.1785 6.50084 21.4708 6.34458 21.7891 6.28128C22.1073 6.21798 22.4372 6.25047 22.737 6.37464C23.0368 6.49882 23.293 6.7091 23.4733 6.9789C23.6535 7.2487 23.7498 7.5659 23.7498 7.89038C23.7502 8.10596 23.7081 8.31951 23.6258 8.51877C23.5435 8.71803 23.4227 8.89907 23.2703 9.05151C23.1178 9.20395 22.9368 9.32478 22.7375 9.40706C22.5383 9.48935 22.3247 9.53147 22.1091 9.53101Z" fill="white"/>
<path d="M14.9999 10.6239C15.8652 10.6239 16.7111 10.8806 17.4306 11.3613C18.1501 11.8421 18.7109 12.5254 19.042 13.3248C19.3732 14.1243 19.4598 15.004 19.291 15.8527C19.1222 16.7014 18.7055 17.481 18.0936 18.0929C17.4817 18.7048 16.7021 19.1215 15.8534 19.2903C15.0047 19.4591 14.125 19.3724 13.3256 19.0413C12.5261 18.7101 11.8428 18.1494 11.362 17.4299C10.8813 16.7104 10.6247 15.8645 10.6247 14.9991C10.6259 13.8392 11.0873 12.727 11.9075 11.9068C12.7278 11.0865 13.8399 10.6252 14.9999 10.6239ZM14.9999 8.43665C13.7019 8.43665 12.4331 8.82153 11.354 9.54263C10.2748 10.2637 9.43362 11.2886 8.93692 12.4878C8.44022 13.6869 8.31026 15.0064 8.56348 16.2794C8.81669 17.5524 9.44171 18.7217 10.3595 19.6395C11.2773 20.5573 12.4466 21.1823 13.7196 21.4355C14.9926 21.6888 16.3121 21.5588 17.5112 21.0621C18.7104 20.5654 19.7353 19.7243 20.4564 18.6451C21.1775 17.5659 21.5624 16.2971 21.5624 14.9991C21.5624 13.2587 20.871 11.5895 19.6403 10.3588C18.4096 9.12805 16.7404 8.43665 14.9999 8.43665Z" fill="white"/>
</svg>
