<svg width="50" height="50" viewBox="0 0 50 50" fill="none" xmlns="http://www.w3.org/2000/svg">
<path d="M25 4.68677C17.2363 4.68677 10.9375 10.6819 10.9375 18.0657C10.9375 26.5618 20.3125 40.0256 23.7549 44.676C23.8978 44.8723 24.0851 45.0321 24.3014 45.1422C24.5178 45.2523 24.7572 45.3097 25 45.3097C25.2428 45.3097 25.4822 45.2523 25.6986 45.1422C25.9149 45.0321 26.1022 44.8723 26.2451 44.676C29.6875 40.0276 39.0625 26.5686 39.0625 18.0657C39.0625 10.6819 32.7637 4.68677 25 4.68677Z" stroke="white" stroke-width="1.5" stroke-linecap="round" stroke-linejoin="round"/>
<path d="M25 23.4375C27.5888 23.4375 29.6875 21.3388 29.6875 18.75C29.6875 16.1612 27.5888 14.0625 25 14.0625C22.4112 14.0625 20.3125 16.1612 20.3125 18.75C20.3125 21.3388 22.4112 23.4375 25 23.4375Z" stroke="white" stroke-width="1.5" stroke-linecap="round" stroke-linejoin="round"/>
</svg>
