<svg width="30" height="30" viewBox="0 0 30 30" fill="none" xmlns="http://www.w3.org/2000/svg">
<path d="M27.7148 2.28958C27.523 2.09791 27.28 1.96574 27.0149 1.90898C26.7498 1.85222 26.474 1.87329 26.2206 1.96965L2.78137 10.8413H2.77668C2.50642 10.9453 2.27484 11.1301 2.11356 11.3706C1.95229 11.6111 1.86918 11.8955 1.87559 12.185C1.882 12.4745 1.97762 12.7549 2.14938 12.988C2.32114 13.2211 2.56068 13.3955 2.83527 13.4874L2.8593 13.495L10.9042 16.9304C11.0611 16.978 11.2278 16.9837 11.3876 16.9468C11.5473 16.9098 11.6946 16.8317 11.8148 16.72L24.7265 4.68899C24.765 4.65052 24.8106 4.62 24.8609 4.59918C24.9112 4.57836 24.965 4.56764 25.0194 4.56764C25.0739 4.56764 25.1277 4.57836 25.178 4.59918C25.2283 4.62 25.2739 4.65052 25.3124 4.68899C25.3509 4.72746 25.3814 4.77314 25.4022 4.82341C25.423 4.87367 25.4338 4.92755 25.4338 4.98196C25.4338 5.03637 25.423 5.09024 25.4022 5.14051C25.3814 5.19078 25.3509 5.23645 25.3124 5.27493L13.2808 18.1808C13.1691 18.3009 13.091 18.4482 13.0541 18.608C13.0171 18.7678 13.0228 18.9344 13.0704 19.0913L16.5069 27.1409C16.5105 27.1527 16.514 27.1632 16.5181 27.1743C16.7056 27.7175 17.1802 28.1007 17.7538 28.1265C17.779 28.1265 17.7878 28.1265 17.8124 28.1265C18.102 28.1281 18.3854 28.0426 18.6257 27.8811C18.8661 27.7195 19.0523 27.4894 19.1601 27.2206L28.0306 3.78782C28.1283 3.53427 28.1505 3.25784 28.0945 2.99195C28.0384 2.72605 27.9065 2.4821 27.7148 2.28958Z" fill="white"/>
</svg>
