<svg width="30" height="30" viewBox="0 0 30 30" fill="none" xmlns="http://www.w3.org/2000/svg">
<path fill-rule="evenodd" clip-rule="evenodd" d="M24.3008 5.68841C23.0874 4.47439 21.6458 3.51237 20.0591 2.85772C18.4723 2.20308 16.7718 1.86874 15.0553 1.87396C7.8518 1.87396 1.98774 7.70873 1.98481 14.8818C1.98163 17.1658 2.5837 19.4099 3.72974 21.3857L1.87524 28.124L8.80395 26.3152C10.7219 27.3542 12.8688 27.898 15.05 27.8972H15.0553C22.2582 27.8972 28.1217 22.0618 28.1252 14.8894C28.1296 13.1788 27.7937 11.4844 27.1372 9.90478C26.4806 8.32518 25.5165 6.89193 24.3008 5.68841V5.68841ZM15.0553 25.7017H15.0506C13.1061 25.7023 11.197 25.1819 9.52173 24.1947L9.12505 23.9603L5.01352 25.0337L6.11099 21.0441L5.85259 20.6339C4.76531 18.9125 4.18926 16.9178 4.19145 14.8818C4.19145 8.92103 9.06704 4.07123 15.0594 4.07123C17.934 4.06609 20.693 5.20298 22.7294 7.23184C24.7658 9.2607 25.913 12.0154 25.9186 14.89C25.9163 20.8513 21.043 25.7017 15.0553 25.7017ZM21.0137 17.6046C20.6873 17.4417 19.0801 16.6554 18.7825 16.547C18.4848 16.4386 18.2651 16.3841 18.0477 16.7099C17.8303 17.0357 17.2039 17.7646 17.0135 17.9843C16.8231 18.204 16.6327 18.2281 16.3063 18.0652C15.9799 17.9023 14.927 17.5595 13.6795 16.4521C12.7086 15.5902 12.0536 14.5261 11.8631 14.2009C11.6727 13.8757 11.8426 13.6993 12.0061 13.5376C12.1532 13.3917 12.3325 13.1579 12.4959 12.9681C12.6594 12.7783 12.7139 12.6423 12.8223 12.4255C12.9307 12.2087 12.8768 12.0189 12.7954 11.8566C12.7139 11.6943 12.0606 10.0941 11.7887 9.4431C11.5233 8.80912 11.2543 8.89525 11.054 8.88529C10.8635 8.87591 10.6438 8.87357 10.4276 8.87357C10.2623 8.87787 10.0997 8.9162 9.94986 8.98617C9.80005 9.05613 9.66628 9.15623 9.55688 9.28021C9.25747 9.60599 8.41372 10.3935 8.41372 11.9919C8.41372 13.5904 9.58559 15.1372 9.74731 15.354C9.90903 15.5708 12.05 18.8538 15.326 20.2618C15.9343 20.5224 16.5559 20.7508 17.1881 20.9462C17.9704 21.1935 18.6823 21.1589 19.2448 21.0751C19.8723 20.982 21.1784 20.2888 21.4497 19.5294C21.7209 18.7701 21.7215 18.1197 21.6401 17.9843C21.5586 17.849 21.3407 17.7669 21.0137 17.6046Z" fill="white"/>
</svg>
